<svg xmlns="http://www.w3.org/2000/svg" width="20" height="20" viewBox="0 0 20 20">
    <path fill="#9b9b9b" fill-rule="nonzero" d="M15.805 19.248a.766.766 0 0 0 .521-.305.777.777 0 0 0 .141-.59l-.978-5.993 4.284-4.272a.777.777 0 0 0 .19-.787.769.769 0 0 0-.612-.525l-5.963-.918L10.685.426a.766.766 0 0 0-1.37 0L6.612 5.858l-5.963.918a.769.769 0 0 0-.612.525.777.777 0 0 0 .19.787l4.284 4.272-.979 5.993c-.048.29.07.583.307.755.237.172.55.194.808.057L10 16.373l5.353 2.792a.762.762 0 0 0 .452.083zm-1.1-2.162l-4.351-2.268a.762.762 0 0 0-.708 0l-4.352 2.268.798-4.87a.776.776 0 0 0-.218-.676L2.388 8.065l4.841-.735a.767.767 0 0 0 .572-.418L10 2.497l2.198 4.415c.113.225.326.38.573.418l4.841.735-3.486 3.475a.776.776 0 0 0-.218.675l.798 4.871z"/>
</svg>
