<svg xmlns="http://www.w3.org/2000/svg" width="9" height="15" viewBox="0 0 9 15">
    <path fill="#999" fill-rule="nonzero" d="M5.28 11.537l-1.164-1.94-.82 2.293-1.623 2.47c-.264.45-.573.734-1.01.612-.437-.122-.74-.606-.538-1.039l1.657-2.748.723-2.634c.042-.242-.109-.632-.109-.632-.142-.542-.045-.865-.045-.865L2.78 4.59l-1.067.926-.438 1.871c-.069.392-.28.684-.644.687-.363.003-.661-.32-.629-.66L.567 5.09c.07-.455.327-.607.327-.607L3.23 2.81a2.092 2.092 0 0 1 2.242.42l1.134 2.266 1.281.978c.275.296.31.711.04.963-.23.217-.674.07-.895-.158L5.92 6.43c-.22-.131-.724-1.18-.724-1.18l-.341 2.22a.567.567 0 0 0 .082.448l1.75 2.803.487 3.216c.114.527-.12.906-.526 1.01-.428.111-.828-.146-.934-.567l-.432-2.844zm.052-9.018c-.665.121-1.307-.34-1.433-1.03-.127-.69.31-1.348.975-1.47.665-.121 1.307.34 1.433 1.03.127.69-.31 1.348-.975 1.47z"/>
</svg>
