<svg xmlns="http://www.w3.org/2000/svg" width="21" height="10" viewBox="0 0 21 10">
    <path fill="#9B9B9B" fill-rule="nonzero" d="M14.601 7.498c.462.597.704 1.351.71 2.249V10H5.034v-.253c0-.9.235-1.653.69-2.249H0V7.3c0-1.957 1.455-3.028 4.104-3.028 2.053 0 3.389.651 3.893 1.85.629-.162 1.352-.245 2.166-.245.825 0 1.558.086 2.193.254.492-1.21 1.83-1.86 3.892-1.86 2.65 0 4.104 1.085 4.12 3.029v.198H14.6zm-4.438-2.01c-1.417 0-2.565-1.166-2.565-2.619 0-1.403 1.11-2.45 2.565-2.45 1.455 0 2.565 1.047 2.565 2.45 0 1.436-1.149 2.62-2.565 2.62zm-6.06-1.52a2.048 2.048 0 0 1-2.051-2.05C2.052.82 2.94 0 4.104 0c1.164 0 2.052.82 2.052 1.918 0 1.124-.919 2.05-2.052 2.05zm12.145 0a2.048 2.048 0 0 1-2.051-2.05C14.197.82 15.085 0 16.248 0 17.412 0 18.3.82 18.3 1.918c0 1.124-.918 2.05-2.052 2.05z"/>
</svg>
